<svg width="25" height="25" viewBox="0 0 25 25" fill="none" xmlns="http://www.w3.org/2000/svg">
<path d="M16.0638 8.7533C17.6551 8.7533 19.1812 9.38544 20.3064 10.5107C21.4317 11.6359 22.0638 13.162 22.0638 14.7533V21.7533H18.0638V14.7533C18.0638 14.2229 17.8531 13.7142 17.478 13.3391C17.1029 12.964 16.5942 12.7533 16.0638 12.7533C15.5334 12.7533 15.0247 12.964 14.6496 13.3391C14.2745 13.7142 14.0638 14.2229 14.0638 14.7533V21.7533H10.0638V14.7533C10.0638 13.162 10.6959 11.6359 11.8212 10.5107C12.9464 9.38544 14.4725 8.7533 16.0638 8.7533Z" stroke="white" stroke-width="2" stroke-linecap="round" stroke-linejoin="round"/>
<path d="M6.0638 9.7533H2.0638V21.7533H6.0638V9.7533Z" stroke="white" stroke-width="2" stroke-linecap="round" stroke-linejoin="round"/>
<path d="M4.0638 6.7533C5.16837 6.7533 6.0638 5.85787 6.0638 4.7533C6.0638 3.64873 5.16837 2.7533 4.0638 2.7533C2.95923 2.7533 2.0638 3.64873 2.0638 4.7533C2.0638 5.85787 2.95923 6.7533 4.0638 6.7533Z" stroke="white" stroke-width="2" stroke-linecap="round" stroke-linejoin="round"/>
</svg>
